<svg xmlns="http://www.w3.org/2000/svg" xml:space="preserve" style="fill-rule:evenodd;clip-rule:evenodd;stroke-miterlimit:10" viewBox="0 0 180 54"><path d="M173.33 53.333H6.67c-3.667 0-6.666-3-6.666-6.666v-40C.004 3.001 3.003.001 6.67.001h166.66c3.667 0 6.667 3 6.667 6.666v40c0 3.666-3 6.666-6.667 6.666" style="fill:#100f0d;fill-rule:nonzero"/><path d="M142.58 40h2.488V23.331h-2.488zm22.409-10.664-2.852 7.226h-.085l-2.96-7.226h-2.68l4.44 10.1-2.532 5.619h2.595l6.841-15.719zm-14.11 8.771c-.813 0-1.951-.408-1.951-1.416 0-1.286 1.416-1.78 2.638-1.78 1.093 0 1.609.236 2.273.558a3.02 3.02 0 0 1-2.96 2.638m.301-9.136c-1.801 0-3.666.794-4.438 2.553l2.208.921c.472-.921 1.35-1.221 2.273-1.221 1.287 0 2.595.771 2.616 2.144v.171c-.451-.257-1.416-.643-2.595-.643-2.381 0-4.804 1.308-4.804 3.752 0 2.23 1.952 3.667 4.139 3.667 1.672 0 2.596-.75 3.173-1.63h.087v1.288h2.403v-6.391c0-2.96-2.211-4.611-5.062-4.611m-15.376 2.394h-3.538v-5.713h3.538c1.86 0 2.916 1.539 2.916 2.856 0 1.292-1.056 2.857-2.916 2.857m-.064-8.034h-5.961V40h2.487v-6.314h3.474c2.758 0 5.468-1.996 5.468-5.177s-2.71-5.177-5.468-5.177zm-32.507 14.778c-1.718 0-3.157-1.439-3.157-3.415 0-1.998 1.439-3.458 3.157-3.458 1.697 0 3.029 1.46 3.029 3.458 0 1.976-1.332 3.415-3.029 3.415m2.857-7.84h-.086c-.558-.666-1.633-1.267-2.985-1.267-2.836 0-5.435 2.492-5.435 5.692 0 3.179 2.599 5.649 5.435 5.649 1.352 0 2.427-.601 2.985-1.288h.086v.815c0 2.171-1.16 3.33-3.029 3.33-1.524 0-2.469-1.095-2.856-2.019l-2.169.902c.622 1.503 2.276 3.351 5.026 3.351 2.921 0 5.392-1.719 5.392-5.908V29.345h-2.364zM110.172 40h2.491V23.33h-2.491zm6.164-5.499c-.064-2.191 1.698-3.308 2.965-3.308.988 0 1.825.494 2.105 1.202zm7.733-1.891c-.473-1.267-1.912-3.608-4.854-3.608-2.922 0-5.349 2.298-5.349 5.671 0 3.179 2.406 5.67 5.627 5.67 2.599 0 4.104-1.589 4.727-2.513l-1.933-1.289c-.645.946-1.525 1.568-2.794 1.568-1.266 0-2.169-.58-2.748-1.718l7.582-3.136zM63.66 30.742v2.406h5.756c-.172 1.353-.623 2.341-1.31 3.028-.838.838-2.148 1.762-4.446 1.762-3.545 0-6.315-2.857-6.315-6.401 0-3.545 2.77-6.402 6.315-6.402 1.912 0 3.307.752 4.339 1.719l1.697-1.697c-1.44-1.375-3.351-2.427-6.036-2.427-4.855 0-8.937 3.952-8.937 8.807 0 4.854 4.082 8.806 8.937 8.806 2.62 0 4.596-.859 6.143-2.47 1.589-1.589 2.084-3.823 2.084-5.628 0-.558-.044-1.073-.13-1.503zm14.772 7.367c-1.719 0-3.201-1.417-3.201-3.436 0-2.041 1.482-3.437 3.201-3.437 1.718 0 3.2 1.396 3.2 3.437 0 2.019-1.482 3.436-3.2 3.436m0-9.107c-3.137 0-5.693 2.384-5.693 5.671 0 3.265 2.556 5.67 5.693 5.67s5.692-2.405 5.692-5.67c0-3.287-2.556-5.671-5.692-5.671m12.417 9.107c-1.718 0-3.2-1.417-3.2-3.436 0-2.041 1.482-3.437 3.2-3.437s3.2 1.396 3.2 3.437c0 2.019-1.481 3.436-3.2 3.436m0-9.107c-3.136 0-5.692 2.384-5.692 5.671 0 3.265 2.556 5.67 5.692 5.67s5.693-2.405 5.693-5.67c0-3.287-2.556-5.671-5.693-5.671" style="fill:#fff;fill-rule:nonzero"/><path d="M27.622 25.899 13.428 40.965l.002.009a3.833 3.833 0 0 0 5.648 2.312l.046-.026 15.978-9.22-7.479-8.141" style="fill:#eb3131;fill-rule:nonzero"/><path d="m41.983 23.334-.014-.009-6.898-3.999-7.772 6.915 7.799 7.798 6.862-3.959a3.837 3.837 0 0 0 .023-6.746" style="fill:#f6b60b;fill-rule:nonzero"/><path d="M13.426 12.37q-.129.473-.13.987V39.98q0 .514.131.985l14.684-14.681z" style="fill:#5778c5;fill-rule:nonzero"/><path d="m27.727 26.668 7.347-7.345-15.96-9.254a3.85 3.85 0 0 0-1.981-.547 3.835 3.835 0 0 0-3.705 2.844l-.001.004z" style="fill:#3bad49;fill-rule:nonzero"/><path d="M63.193 13.042h-3.889v.963h2.914c-.079.785-.392 1.402-.919 1.85-.527.447-1.2.672-1.995.672q-1.31-.001-2.219-.908c-.594-.616-.896-1.379-.896-2.298 0-.918.302-1.681.896-2.298q.91-.906 2.219-.906c.448 0 .875.077 1.266.246.392.169.706.404.952.706l.74-.739c-.336-.382-.761-.673-1.288-.886a4.4 4.4 0 0 0-1.671-.314q-1.747 0-2.958 1.21-1.21 1.214-1.21 2.981c0 1.177.404 2.175 1.21 2.982q1.21 1.21 2.958 1.21c1.223 0 2.198-.392 2.948-1.188.661-.662.998-1.558.998-2.679 0-.189-.023-.391-.056-.604ZM64.7 9.309v8.025h4.685v-.986h-3.654v-2.545h3.296v-.963h-3.296v-2.544h3.654v-.987zm11.255.987v-.987H70.44v.987h2.242v7.038h1.031v-7.038zm4.992-.987h-1.031v8.025h1.031zm6.807.987v-.987h-5.515v.987h2.242v7.038h1.031v-7.038zm10.406.057c-.796-.819-1.771-1.223-2.936-1.223s-2.141.404-2.937 1.21c-.796.796-1.187 1.794-1.187 2.981 0 1.188.391 2.186 1.187 2.982.796.806 1.771 1.21 2.937 1.21 1.155 0 2.14-.404 2.936-1.21.796-.796 1.187-1.794 1.187-2.982 0-1.177-.391-2.173-1.187-2.968Zm-5.133.67q.888-.906 2.197-.906t2.186.906c.594.594.885 1.369.885 2.298 0 .932-.291 1.704-.885 2.298q-.875.907-2.186.908-1.31-.001-2.197-.908c-.582-.606-.873-1.366-.873-2.298 0-.929.291-1.691.873-2.298Zm8.77 1.313-.043-1.548h.043l4.079 6.546h1.077V9.309h-1.031v4.695l.044 1.548h-.044l-3.9-6.243h-1.256v8.025h1.031z" style="fill:#fff;fill-rule:nonzero;stroke:#fff;stroke-width:.27px"/></svg>